<?xml version="1.0" encoding="UTF-8"?>
<!DOCTYPE svg PUBLIC "-//W3C//DTD SVG 1.1//EN" "http://www.w3.org/Graphics/SVG/1.1/DTD/svg11.dtd">
<svg xmlns="http://www.w3.org/2000/svg" version="1.1" width="641px" height="633px" style="shape-rendering:geometricPrecision; text-rendering:geometricPrecision; image-rendering:optimizeQuality; fill-rule:evenodd; clip-rule:evenodd" xmlns:xlink="http://www.w3.org/1999/xlink">
<g><path style="opacity:1" fill="#5c442e" d="M 361.5,-0.5 C 365.5,-0.5 369.5,-0.5 373.5,-0.5C 379.768,1.72368 384.601,5.72368 388,11.5C 396.648,4.72392 405.815,3.89059 415.5,9C 420.356,14.9002 422.856,21.7335 423,29.5C 432.094,24.3094 438.428,26.6428 442,36.5C 442.79,42.5522 442.624,48.5522 441.5,54.5C 445.471,55.3219 449.137,56.8219 452.5,59C 453.914,60.9935 454.914,63.1602 455.5,65.5C 455.5,66.1667 455.5,66.8333 455.5,67.5C 455.5,68.8333 455.5,70.1667 455.5,71.5C 454.753,76.7753 452.086,80.942 447.5,84C 450.18,87.4229 451.013,91.2562 450,95.5C 447.613,98.7095 445.113,101.71 442.5,104.5C 440.833,100.833 438.167,98.1667 434.5,96.5C 440.802,86.0766 439.469,76.5766 430.5,68C 426.491,65.6162 422.324,65.1162 418,66.5C 418.238,62.3539 418.738,58.1872 419.5,54C 418.238,42.7872 412.238,39.1206 401.5,43C 398.438,44.0608 395.938,45.8941 394,48.5C 394.416,39.1556 390.583,32.3222 382.5,28C 374.559,26.8048 368.559,29.6381 364.5,36.5C 346.137,34.4494 337.971,42.7828 340,61.5C 340.278,62.4158 340.778,63.0825 341.5,63.5C 336.745,68.9786 331.079,70.3119 324.5,67.5C 324.5,66.8333 324.167,66.5 323.5,66.5C 323.167,65.5 322.5,64.8333 321.5,64.5C 320.759,61.5867 320.259,58.5867 320,55.5C 314.897,61.2332 309.231,62.2332 303,58.5C 301.764,50.7243 304.598,44.891 311.5,41C 304.637,33.2642 305.304,26.2642 313.5,20C 317.439,18.1759 321.439,18.0092 325.5,19.5C 326.453,6.70762 333.12,1.87429 345.5,5C 348.759,6.21059 351.592,8.04392 354,10.5C 355.043,5.72067 357.543,2.054 361.5,-0.5 Z"/></g>
<g><path style="opacity:1" fill="#473526" d="M 434.5,96.5 C 428.043,95.0877 423.043,97.0877 419.5,102.5C 408.166,105.016 403.833,100.683 406.5,89.5C 403.003,89.4724 399.336,89.3057 395.5,89C 393.951,87.786 392.785,86.286 392,84.5C 391.321,79.9776 391.654,75.6443 393,71.5C 383.441,76.7916 375.441,75.1249 369,66.5C 367.257,63.0433 366.257,59.3767 366,55.5C 363.031,63.1597 357.531,66.6597 349.5,66C 347.106,64.0478 345.606,61.5478 345,58.5C 344.003,60.3231 342.836,61.9897 341.5,63.5C 340.778,63.0825 340.278,62.4158 340,61.5C 337.971,42.7828 346.137,34.4494 364.5,36.5C 368.559,29.6381 374.559,26.8048 382.5,28C 390.583,32.3222 394.416,39.1556 394,48.5C 395.938,45.8941 398.438,44.0608 401.5,43C 412.238,39.1206 418.238,42.7872 419.5,54C 418.738,58.1872 418.238,62.3539 418,66.5C 422.324,65.1162 426.491,65.6162 430.5,68C 439.469,76.5766 440.802,86.0766 434.5,96.5 Z"/></g>
<g><path style="opacity:1" fill="#b05d46" d="M 434.5,96.5 C 438.167,98.1667 440.833,100.833 442.5,104.5C 442.232,106.099 442.566,107.432 443.5,108.5C 443.5,108.833 443.5,109.167 443.5,109.5C 443.5,111.167 443.5,112.833 443.5,114.5C 442.464,122.713 438.131,128.546 430.5,132C 429.919,132.893 429.585,133.893 429.5,135C 432.813,162.147 435.979,189.314 439,216.5C 439.168,219.177 440.001,221.51 441.5,223.5C 440.252,224.334 439.585,225.667 439.5,227.5C 440.221,232.326 440.888,237.16 441.5,242C 441.74,244.891 440.907,247.391 439,249.5C 426.275,262.112 411.108,269.779 393.5,272.5C 383.744,271.877 374.077,270.544 364.5,268.5C 355.272,264.941 348.606,258.608 344.5,249.5C 347.812,238.251 350.812,226.918 353.5,215.5C 353.376,214.893 353.043,214.56 352.5,214.5C 353.752,211.238 354.752,207.905 355.5,204.5C 368.749,207.913 380.249,204.913 390,195.5C 393.699,189.658 395.366,183.325 395,176.5C 383.629,183.9 371.129,187.567 357.5,187.5C 344.425,184.602 334.592,177.269 328,165.5C 319.948,147.958 316.781,129.624 318.5,110.5C 318.5,109.5 318.5,108.5 318.5,107.5C 318.445,101.046 319.112,94.7122 320.5,88.5C 325.97,90.1705 331.136,89.5038 336,86.5C 338.874,81.6047 337.541,79.2713 332,79.5C 328.703,79.2337 325.87,80.2337 323.5,82.5C 322.534,80.604 322.201,78.604 322.5,76.5C 322.575,73.7938 322.908,71.1272 323.5,68.5C 324.167,68.5 324.5,68.1667 324.5,67.5C 331.079,70.3119 336.745,68.9786 341.5,63.5C 342.836,61.9897 344.003,60.3231 345,58.5C 345.606,61.5478 347.106,64.0478 349.5,66C 357.531,66.6597 363.031,63.1597 366,55.5C 366.257,59.3767 367.257,63.0433 369,66.5C 375.441,75.1249 383.441,76.7916 393,71.5C 391.654,75.6443 391.321,79.9776 392,84.5C 392.785,86.286 393.951,87.786 395.5,89C 399.336,89.3057 403.003,89.4724 406.5,89.5C 403.833,100.683 408.166,105.016 419.5,102.5C 423.043,97.0877 428.043,95.0877 434.5,96.5 Z"/></g>
<g><path style="opacity:0.463" fill="#001620" d="M 321.5,64.5 C 322.5,64.8333 323.167,65.5 323.5,66.5C 241.833,66.5 160.167,66.5 78.5,66.5C 159.5,65.8333 240.5,65.1667 321.5,64.5 Z"/></g>
<g><path style="opacity:0.557" fill="#001b28" d="M 323.5,66.5 C 324.167,66.5 324.5,66.8333 324.5,67.5C 324.5,68.1667 324.167,68.5 323.5,68.5C 241.833,68.5 160.167,68.5 78.5,68.5C 160.167,67.8333 241.833,67.1667 323.5,66.5 Z"/></g>
<g><path style="opacity:0.557" fill="#001a27" d="M 455.5,67.5 C 494.337,67.1681 533.004,67.5015 571.5,68.5C 533.167,68.5 494.833,68.5 456.5,68.5C 456.737,69.791 456.404,70.791 455.5,71.5C 455.5,70.1667 455.5,68.8333 455.5,67.5 Z"/></g>
<g><path style="opacity:1" fill="#644831" d="M 353.5,75.5 C 359.194,75.4527 364.027,77.4527 368,81.5C 368.49,82.7932 368.657,84.1266 368.5,85.5C 363.258,85.9773 358.258,85.1439 353.5,83C 350.914,80.506 350.914,78.006 353.5,75.5 Z"/></g>
<g><path style="opacity:1" fill="#644630" d="M 322.5,76.5 C 322.201,78.604 322.534,80.604 323.5,82.5C 325.87,80.2337 328.703,79.2337 332,79.5C 337.541,79.2713 338.874,81.6047 336,86.5C 331.136,89.5038 325.97,90.1705 320.5,88.5C 320.539,84.2671 321.205,80.2671 322.5,76.5 Z"/></g>
<g><path style="opacity:0.78" fill="#7f4207" d="M 553.5,81.5 C 550.43,81.3677 547.43,81.701 544.5,82.5C 544.611,81.8826 544.944,81.3826 545.5,81C 548.367,80.1993 551.034,80.3659 553.5,81.5 Z"/></g>
<g><path style="opacity:1" fill="#022a3f" d="M 522.5,80.5 C 532.855,80.0383 535.855,84.5383 531.5,94C 521.32,97.66 517.154,94.16 519,83.5C 520.145,82.3636 521.312,81.3636 522.5,80.5 Z"/></g>
<g><path style="opacity:1" fill="#da7003" d="M 553.5,81.5 C 558.807,85.8755 558.807,90.3755 553.5,95C 546.761,97.2486 542.761,94.9153 541.5,88C 541.859,85.7039 542.859,83.8705 544.5,82.5C 547.43,81.701 550.43,81.3677 553.5,81.5 Z"/></g>
<g><path style="opacity:1" fill="#365d03" d="M 569.5,81.5 C 572.57,81.3677 575.57,81.701 578.5,82.5C 579.5,82.8333 580.167,83.5 580.5,84.5C 579.904,85.9354 579.904,87.602 580.5,89.5C 580.771,91.3797 580.104,92.713 578.5,93.5C 574.615,95.0158 570.948,94.6825 567.5,92.5C 564.546,88.2614 565.213,84.5947 569.5,81.5 Z"/></g>
<g><path style="opacity:0.188" fill="#571514" d="M 569.5,81.5 C 571.966,80.3659 574.633,80.1993 577.5,81C 578.056,81.3826 578.389,81.8826 578.5,82.5C 575.57,81.701 572.57,81.3677 569.5,81.5 Z"/></g>
<g><path style="opacity:0.999" fill="#012a3f" d="M 455.5,65.5 C 497.201,65.0338 538.867,65.5338 580.5,67C 599.207,72.5987 609.207,85.0987 610.5,104.5C 610.833,173.335 610.499,242.002 609.5,310.5C 609.832,243.331 609.499,176.331 608.5,109.5C 553.5,109.5 498.5,109.5 443.5,109.5C 443.5,109.167 443.5,108.833 443.5,108.5C 498.669,108.832 553.669,108.499 608.5,107.5C 606.766,84.4324 594.432,71.4324 571.5,68.5C 533.004,67.5015 494.337,67.1681 455.5,67.5C 455.5,66.8333 455.5,66.1667 455.5,65.5 Z"/></g>
<g><path style="opacity:0.102" fill="#34110d" d="M 580.5,84.5 C 581.72,86.2837 581.72,87.9504 580.5,89.5C 579.904,87.602 579.904,85.9354 580.5,84.5 Z"/></g>
<g><path style="opacity:0.999" fill="#052334" d="M 78.5,66.5 C 160.167,66.5 241.833,66.5 323.5,66.5C 241.833,67.1667 160.167,67.8333 78.5,68.5C 57.8968,73.4356 46.5635,86.4356 44.5,107.5C 135.833,107.5 227.167,107.5 318.5,107.5C 318.5,108.5 318.5,109.5 318.5,110.5C 227.167,110.5 135.833,110.5 44.5,110.5C 44.5,125.833 44.5,141.167 44.5,156.5C 42.5853,156.784 40.9187,156.451 39.5,155.5C 40.5,155.5 41.5,155.5 42.5,155.5C 42.3334,136.497 42.5001,117.497 43,98.5C 47.7314,79.8942 59.5647,69.2275 78.5,66.5 Z"/></g>
<g><path style="opacity:0.753" fill="#682215" d="M 567.5,92.5 C 570.948,94.6825 574.615,95.0158 578.5,93.5C 578.389,94.1174 578.056,94.6174 577.5,95C 574.833,95.6667 572.167,95.6667 569.5,95C 568.619,94.2917 567.953,93.4584 567.5,92.5 Z"/></g>
<g><path style="opacity:1" fill="#6c411f" d="M 355.5,95.5 C 360.493,95.997 361.493,98.1637 358.5,102C 353.4,101.887 352.4,99.7206 355.5,95.5 Z"/></g>
<g><path style="opacity:1" fill="#a0503d" d="M 384.5,98.5 C 396.548,97.0179 400.381,101.685 396,112.5C 389.026,120.367 380.526,122.867 370.5,120C 367.136,116.974 366.636,113.474 369,109.5C 373.097,104.212 378.264,100.546 384.5,98.5 Z"/></g>
<g><path style="opacity:1" fill="#6a401e" d="M 330.5,100.5 C 334.029,99.8894 335.862,101.223 336,104.5C 330.648,107.877 328.815,106.544 330.5,100.5 Z"/></g>
<g><path style="opacity:0.467" fill="#021622" d="M 442.5,104.5 C 443.404,105.209 443.737,106.209 443.5,107.5C 498.5,107.5 553.5,107.5 608.5,107.5C 553.669,108.499 498.669,108.832 443.5,108.5C 442.566,107.432 442.232,106.099 442.5,104.5 Z"/></g>
<g><path style="opacity:0.2" fill="#00090e" d="M 443.5,109.5 C 498.5,109.5 553.5,109.5 608.5,109.5C 608.5,109.833 608.5,110.167 608.5,110.5C 553.833,110.5 499.167,110.5 444.5,110.5C 444.768,112.099 444.434,113.432 443.5,114.5C 443.5,112.833 443.5,111.167 443.5,109.5 Z"/></g>
<g><path style="opacity:0.145" fill="#01070b" d="M 610.5,104.5 C 611.499,173.665 611.833,242.998 611.5,312.5C 610.5,312.167 609.833,311.5 609.5,310.5C 610.499,242.002 610.833,173.335 610.5,104.5 Z"/></g>
<g><path style="opacity:0.498" fill="#021824" d="M 608.5,109.5 C 609.499,176.331 609.832,243.331 609.5,310.5C 608.5,310.167 607.833,309.5 607.5,308.5C 608.499,242.669 608.832,176.669 608.5,110.5C 608.5,110.167 608.5,109.833 608.5,109.5 Z"/></g>
<g><path style="opacity:1" fill="#ae5b45" d="M 139.5,255.5 C 139.5,255.833 139.5,256.167 139.5,256.5C 129.439,261.804 119.106,266.637 108.5,271C 100.089,274.436 91.4226,276.936 82.5,278.5C 82.1075,271.454 81.4408,264.454 80.5,257.5C 80.5,253.5 80.5,249.5 80.5,245.5C 76.8333,245.5 73.1667,245.5 69.5,245.5C 66.3033,245.595 63.3033,244.928 60.5,243.5C 59.4253,242.287 58.7586,240.787 58.5,239C 59.5947,234.142 60.428,229.309 61,224.5C 55.8787,225.702 50.712,225.702 45.5,224.5C 44.391,224.443 43.391,224.11 42.5,223.5C 37.743,220.508 36.243,216.175 38,210.5C 39.0217,209.646 39.8551,208.646 40.5,207.5C 36.7749,203.579 35.7749,199.079 37.5,194C 36.6195,193.292 35.9528,192.458 35.5,191.5C 33.8166,187.364 33.1499,183.031 33.5,178.5C 33.5743,176.589 34.5743,175.422 36.5,175C 24.8428,172.674 13.8428,168.674 3.5,163C 1.92975,161.603 0.596413,160.103 -0.5,158.5C -0.5,157.167 -0.5,155.833 -0.5,154.5C 0.391047,153.89 1.39105,153.557 2.5,153.5C 13.8926,153.303 25.2259,153.97 36.5,155.5C 37.5,155.5 38.5,155.5 39.5,155.5C 40.9187,156.451 42.5853,156.784 44.5,156.5C 50.251,157.583 55.9176,158.916 61.5,160.5C 60.8729,166.555 59.8729,172.555 58.5,178.5C 61.1091,182.099 64.4424,185.099 68.5,187.5C 69.086,187.291 69.586,186.957 70,186.5C 71.8249,179.205 73.3249,171.872 74.5,164.5C 75.5,164.5 76.5,164.5 77.5,164.5C 78.1667,164.5 78.8333,164.5 79.5,164.5C 79.6107,165.117 79.944,165.617 80.5,166C 83.6878,167.383 86.8545,167.549 90,166.5C 90.49,165.207 90.6567,163.873 90.5,162.5C 88.0909,154.939 86.0909,147.273 84.5,139.5C 83.3517,134.57 82.685,129.57 82.5,124.5C 83.9567,120.951 86.6234,119.784 90.5,121C 98.9004,130.075 105.734,140.242 111,151.5C 119.441,168.489 126.108,186.156 131,204.5C 133.842,221.551 136.675,238.551 139.5,255.5 Z"/></g>
<g><path style="opacity:1" fill="#613b1b" d="M 82.5,124.5 C 82.685,129.57 83.3517,134.57 84.5,139.5C 83.8826,139.389 83.3826,139.056 83,138.5C 82.5454,141.757 80.8787,144.091 78,145.5C 77.5779,147.355 77.0779,149.189 76.5,151C 77.1405,155.559 77.4739,160.059 77.5,164.5C 76.5,164.5 75.5,164.5 74.5,164.5C 73.3249,171.872 71.8249,179.205 70,186.5C 69.586,186.957 69.086,187.291 68.5,187.5C 64.4424,185.099 61.1091,182.099 58.5,178.5C 59.8729,172.555 60.8729,166.555 61.5,160.5C 61.8965,155.798 63.7298,151.798 67,148.5C 67.2815,144.838 67.1148,141.171 66.5,137.5C 66.655,126.835 71.4883,123.835 81,128.5C 81.21,126.942 81.71,125.609 82.5,124.5 Z"/></g>
<g><path style="opacity:1" fill="#faf7f6" d="M 360.5,128.5 C 362.967,133.962 363.134,139.629 361,145.5C 356.735,151.567 352.068,151.901 347,146.5C 345.833,144.667 344.667,142.833 343.5,141C 351.316,139.675 356.983,135.508 360.5,128.5 Z"/></g>
<g><path style="opacity:0.765" fill="#613125" d="M 36.5,155.5 C 25.2259,153.97 13.8926,153.303 2.5,153.5C 4.58624,152.391 6.91958,151.724 9.5,151.5C 18.7595,152.013 27.7595,153.346 36.5,155.5 Z"/></g>
<g><path style="opacity:0.792" fill="#4e271e" d="M 90.5,162.5 C 90.6567,163.873 90.49,165.207 90,166.5C 86.8545,167.549 83.6878,167.383 80.5,166C 79.944,165.617 79.6107,165.117 79.5,164.5C 82.0034,165.084 84.5034,165.751 87,166.5C 88.7706,165.653 89.9373,164.32 90.5,162.5 Z"/></g>
<g><path style="opacity:1" fill="#904738" d="M 355.5,204.5 C 356.115,199.424 357.115,194.424 358.5,189.5C 358.137,188.817 357.804,188.15 357.5,187.5C 371.129,187.567 383.629,183.9 395,176.5C 395.366,183.325 393.699,189.658 390,195.5C 380.249,204.913 368.749,207.913 355.5,204.5 Z"/></g>
<g><path style="opacity:0.988" fill="#653427" d="M 33.5,178.5 C 33.1499,183.031 33.8166,187.364 35.5,191.5C 31.2431,187.631 30.5764,183.298 33.5,178.5 Z"/></g>
<g><path style="opacity:1" fill="#f9bb47" d="M 352.5,214.5 C 353.043,214.56 353.376,214.893 353.5,215.5C 350.812,226.918 347.812,238.251 344.5,249.5C 348.606,258.608 355.272,264.941 364.5,268.5C 353.099,264.953 341.432,262.953 329.5,262.5C 321.46,265.353 313.793,269.02 306.5,273.5C 306.167,272.333 305.833,271.167 305.5,270C 309.125,253.564 316.459,239.064 327.5,226.5C 334.079,219.045 342.412,215.045 352.5,214.5 Z"/></g>
<g><path style="opacity:1" fill="#f57e00" d="M 327.5,226.5 C 316.459,239.064 309.125,253.564 305.5,270C 305.833,271.167 306.167,272.333 306.5,273.5C 313.793,269.02 321.46,265.353 329.5,262.5C 352.497,291.417 381.163,298.75 415.5,284.5C 419.067,286.557 422.234,289.223 425,292.5C 427.5,295.667 430,298.833 432.5,302C 434.971,302.706 437.305,302.373 439.5,301C 453.435,287.341 461.101,270.841 462.5,251.5C 498.331,258.388 533.331,268.221 567.5,281C 576.013,284.752 584.013,289.252 591.5,294.5C 591.5,295.167 591.5,295.833 591.5,296.5C 569.125,286.681 549.959,291.015 534,309.5C 526.016,320.63 519.183,332.463 513.5,345C 509.5,347.667 505.5,350.333 501.5,353C 485.85,367.986 468.516,380.652 449.5,391C 448.915,392.302 448.249,393.469 447.5,394.5C 447.5,393.167 447.5,391.833 447.5,390.5C 434.786,388.424 422.12,386.091 409.5,383.5C 410.278,382.844 410.944,382.011 411.5,381C 409.343,375.513 405.343,372.18 399.5,371C 396.207,370.174 392.874,369.674 389.5,369.5C 390.346,358.676 385.346,352.676 374.5,351.5C 371.298,352.099 368.298,353.266 365.5,355C 363.265,358.005 360.932,360.838 358.5,363.5C 351.965,361.73 345.298,361.064 338.5,361.5C 321.442,341.269 303.442,321.769 284.5,303C 266.361,286.636 245.361,281.303 221.5,287C 214.221,288.401 207.221,290.568 200.5,293.5C 204.825,283.507 210.159,274.174 216.5,265.5C 217.906,265.027 218.573,264.027 218.5,262.5C 233.443,233.768 257.276,220.435 290,222.5C 302.648,222.628 315.148,223.961 327.5,226.5 Z"/></g>
<g><path style="opacity:1" fill="#f9bc48" d="M 441.5,223.5 C 447.626,224.725 452.626,227.725 456.5,232.5C 456.427,234.027 457.094,235.027 458.5,235.5C 461.315,240.327 462.648,245.66 462.5,251.5C 461.101,270.841 453.435,287.341 439.5,301C 437.305,302.373 434.971,302.706 432.5,302C 430,298.833 427.5,295.667 425,292.5C 422.234,289.223 419.067,286.557 415.5,284.5C 409.099,278.963 401.766,274.963 393.5,272.5C 411.108,269.779 426.275,262.112 439,249.5C 440.907,247.391 441.74,244.891 441.5,242C 440.888,237.16 440.221,232.326 439.5,227.5C 439.585,225.667 440.252,224.334 441.5,223.5 Z"/></g>
<g><path style="opacity:0.749" fill="#092638" d="M 42.5,223.5 C 43.391,224.11 44.391,224.443 45.5,224.5C 45.5,224.833 45.5,225.167 45.5,225.5C 44.5151,229.634 44.1818,233.968 44.5,238.5C 44.7204,243.1 44.0538,247.433 42.5,251.5C 42.5,242.167 42.5,232.833 42.5,223.5 Z"/></g>
<g><path style="opacity:1" fill="#613a1c" d="M 45.5,224.5 C 50.712,225.702 55.8787,225.702 61,224.5C 60.428,229.309 59.5947,234.142 58.5,239C 58.7586,240.787 59.4253,242.287 60.5,243.5C 59.5,243.5 58.5,243.5 57.5,243.5C 56.3015,251.629 54.4682,259.629 52,267.5C 49.9715,271.58 47.4715,275.246 44.5,278.5C 43.5,279.167 42.5,279.833 41.5,280.5C 38.7332,270.843 39.0665,261.177 42.5,251.5C 44.0538,247.433 44.7204,243.1 44.5,238.5C 46.458,234.377 46.7914,230.043 45.5,225.5C 45.5,225.167 45.5,224.833 45.5,224.5 Z"/></g>
<g><path style="opacity:0.58" fill="#725724" d="M 456.5,232.5 C 457.906,232.973 458.573,233.973 458.5,235.5C 457.094,235.027 456.427,234.027 456.5,232.5 Z"/></g>
<g><path style="opacity:0.365" fill="#44241b" d="M 69.5,245.5 C 73.1667,245.5 76.8333,245.5 80.5,245.5C 80.5,249.5 80.5,253.5 80.5,257.5C 80.1667,257.5 79.8333,257.5 79.5,257.5C 79.5,253.833 79.5,250.167 79.5,246.5C 75.9581,246.813 72.6248,246.479 69.5,245.5 Z"/></g>
<g><path style="opacity:1" fill="#306400" d="M 139.5,256.5 C 141.009,265.066 143.009,273.4 145.5,281.5C 147.074,292.117 149.407,302.451 152.5,312.5C 155.753,330.448 159.753,348.115 164.5,365.5C 171.153,396.671 179.82,426.838 190.5,456C 199.526,446.061 202.36,434.561 199,421.5C 195.551,411.935 191.551,402.601 187,393.5C 182.279,384.04 181.613,374.374 185,364.5C 192.442,352.853 195.775,340.186 195,326.5C 193.765,321.709 192.265,317.042 190.5,312.5C 191.659,308.849 193.326,305.515 195.5,302.5C 197.25,301.341 198.25,299.674 198.5,297.5C 198.66,295.847 199.326,294.514 200.5,293.5C 207.221,290.568 214.221,288.401 221.5,287C 245.361,281.303 266.361,286.636 284.5,303C 303.442,321.769 321.442,341.269 338.5,361.5C 336.527,362.806 334.861,364.473 333.5,366.5C 331.374,366.85 329.041,366.85 326.5,366.5C 314.501,363.665 302.335,360.998 290,358.5C 288.97,358.836 288.47,359.503 288.5,360.5C 284.675,384.621 280.342,408.621 275.5,432.5C 274.566,433.568 274.232,434.901 274.5,436.5C 262.866,437.077 258.532,443.077 261.5,454.5C 260.514,458.482 259.514,462.482 258.5,466.5C 259.425,470.059 260.758,473.393 262.5,476.5C 261.338,480.648 260.338,484.815 259.5,489C 260.341,496.811 260.674,504.644 260.5,512.5C 259.828,518.22 258.828,523.887 257.5,529.5C 256.566,530.568 256.232,531.901 256.5,533.5C 254.5,533.5 252.5,533.5 250.5,533.5C 249.238,526.031 248.571,518.365 248.5,510.5C 248.813,506.958 248.479,503.625 247.5,500.5C 246.237,492.934 245.57,485.268 245.5,477.5C 245.785,475.712 245.452,474.045 244.5,472.5C 243.702,472.957 243.369,473.624 243.5,474.5C 242.094,474.973 241.427,475.973 241.5,477.5C 239.738,478.262 238.738,479.596 238.5,481.5C 238.5,482.167 238.167,482.5 237.5,482.5C 236.094,482.973 235.427,483.973 235.5,485.5C 235.167,486.5 234.5,487.167 233.5,487.5C 231.738,488.262 230.738,489.596 230.5,491.5C 230.167,492.5 229.5,493.167 228.5,493.5C 226.086,494.911 224.419,496.911 223.5,499.5C 222.833,500.833 221.833,501.833 220.5,502.5C 219.5,502.833 218.833,503.5 218.5,504.5C 215.427,506.569 213.094,509.236 211.5,512.5C 205.5,519.167 199.167,525.5 192.5,531.5C 190.596,531.738 189.262,532.738 188.5,534.5C 186.704,536.9 184.37,538.567 181.5,539.5C 179.973,539.427 178.973,540.094 178.5,541.5C 177.486,542.674 176.153,543.34 174.5,543.5C 172.447,543.402 170.78,544.069 169.5,545.5C 166.158,547.335 162.491,548.502 158.5,549C 148.577,550.99 138.577,551.657 128.5,551C 125.896,550.61 123.562,549.776 121.5,548.5C 119.819,546.992 117.819,545.992 115.5,545.5C 110.619,543.291 106.619,539.957 103.5,535.5C 103.573,533.973 102.906,532.973 101.5,532.5C 100.833,532.5 100.5,532.167 100.5,531.5C 100.573,529.973 99.9063,528.973 98.5,528.5C 98.573,526.973 97.9063,525.973 96.5,525.5C 94.3256,522.485 92.6589,519.151 91.5,515.5C 91.5979,513.447 90.9313,511.78 89.5,510.5C 88.4625,509.07 87.7959,507.403 87.5,505.5C 87.7373,504.209 87.404,503.209 86.5,502.5C 86.5905,499.848 85.9238,497.515 84.5,495.5C 80.5025,482.551 77.6691,469.217 76,455.5C 70.6491,399.36 64.1491,343.36 56.5,287.5C 56.5,285.167 56.5,282.833 56.5,280.5C 63.175,280.666 69.8417,280.5 76.5,280C 78.7078,279.809 80.7078,279.309 82.5,278.5C 91.4226,276.936 100.089,274.436 108.5,271C 119.106,266.637 129.439,261.804 139.5,256.5 Z M 243.5,474.5 C 244.167,475.5 244.833,476.5 245.5,477.5C 245.57,485.268 246.237,492.934 247.5,500.5C 247.5,501.5 247.5,502.5 247.5,503.5C 238.318,503.827 229.318,503.493 220.5,502.5C 221.833,501.833 222.833,500.833 223.5,499.5C 225.914,498.089 227.581,496.089 228.5,493.5C 229.5,493.167 230.167,492.5 230.5,491.5C 232.262,490.738 233.262,489.404 233.5,487.5C 234.5,487.167 235.167,486.5 235.5,485.5C 236.906,485.027 237.573,484.027 237.5,482.5C 238.167,482.5 238.5,482.167 238.5,481.5C 240.262,480.738 241.262,479.404 241.5,477.5C 242.906,477.027 243.573,476.027 243.5,474.5 Z"/></g>
<g><path style="opacity:1" fill="#e97704" d="M 79.5,257.5 C 79.8333,257.5 80.1667,257.5 80.5,257.5C 81.4408,264.454 82.1075,271.454 82.5,278.5C 80.7078,279.309 78.7078,279.809 76.5,280C 69.8417,280.5 63.175,280.666 56.5,280.5C 56.5,282.833 56.5,285.167 56.5,287.5C 55.1,282.899 55.2666,278.232 57,273.5C 63.2858,266.369 70.7858,261.035 79.5,257.5 Z"/></g>
<g><path style="opacity:0.706" fill="#741917" d="M 139.5,255.5 C 142.373,263.849 144.373,272.516 145.5,281.5C 143.009,273.4 141.009,265.066 139.5,256.5C 139.5,256.167 139.5,255.833 139.5,255.5 Z"/></g>
<g><path style="opacity:1" fill="#306500" d="M 329.5,262.5 C 341.432,262.953 353.099,264.953 364.5,268.5C 374.077,270.544 383.744,271.877 393.5,272.5C 401.766,274.963 409.099,278.963 415.5,284.5C 381.163,298.75 352.497,291.417 329.5,262.5 Z"/></g>
<g><path style="opacity:0.596" fill="#702d0e" d="M 218.5,262.5 C 218.573,264.027 217.906,265.027 216.5,265.5C 216.427,263.973 217.094,262.973 218.5,262.5 Z"/></g>
<g><path style="opacity:0.89" fill="#00283c" d="M 44.5,278.5 C 44.5,353.5 44.5,428.5 44.5,503.5C 58.6766,503.829 72.6766,503.496 86.5,502.5C 87.404,503.209 87.7373,504.209 87.5,505.5C 72.5,505.5 57.5,505.5 42.5,505.5C 42.83,430.429 42.4967,355.429 41.5,280.5C 42.5,279.833 43.5,279.167 44.5,278.5 Z"/></g>
<g><path style="opacity:0.812" fill="#741918" d="M 145.5,281.5 C 148.593,291.549 150.926,301.883 152.5,312.5C 149.407,302.451 147.074,292.117 145.5,281.5 Z"/></g>
<g><path style="opacity:1" fill="#306400" d="M 591.5,296.5 C 593.663,298.083 595.996,299.416 598.5,300.5C 602.12,302.453 605.12,305.119 607.5,308.5C 607.833,309.5 608.5,310.167 609.5,310.5C 609.833,311.5 610.5,312.167 611.5,312.5C 616.609,319.046 620.442,326.38 623,334.5C 630.465,359.625 634.799,385.291 636,411.5C 637.363,436.999 638.863,462.332 640.5,487.5C 640.5,506.833 640.5,526.167 640.5,545.5C 639.11,565.721 633.943,585.054 625,603.5C 622.958,606.94 620.458,609.94 617.5,612.5C 615.5,613.833 613.833,615.5 612.5,617.5C 608.088,622.219 602.755,625.719 596.5,628C 591.126,629.84 585.793,631.34 580.5,632.5C 571.5,632.5 562.5,632.5 553.5,632.5C 536.759,630.232 520.426,626.232 504.5,620.5C 504.735,619.903 505.235,619.57 506,619.5C 519.667,623.345 533.5,624.179 547.5,622C 563,618.5 572.5,609 576,593.5C 577.814,571.277 572.48,550.944 560,532.5C 550.472,522.646 539.305,515.146 526.5,510C 495.541,497.844 463.874,488.011 431.5,480.5C 432.962,472.521 434.296,464.521 435.5,456.5C 435.659,452.709 436.325,449.042 437.5,445.5C 441.118,430.744 444.118,415.744 446.5,400.5C 446.325,398.379 446.659,396.379 447.5,394.5C 448.249,393.469 448.915,392.302 449.5,391C 468.516,380.652 485.85,367.986 501.5,353C 505.5,350.333 509.5,347.667 513.5,345C 519.183,332.463 526.016,320.63 534,309.5C 549.959,291.015 569.125,286.681 591.5,296.5 Z"/></g>
<g><path style="opacity:1" fill="#9b460e" d="M 591.5,294.5 C 594.06,296.273 596.393,298.273 598.5,300.5C 595.996,299.416 593.663,298.083 591.5,296.5C 591.5,295.833 591.5,295.167 591.5,294.5 Z"/></g>
<g><path style="opacity:0.392" fill="#581512" d="M 198.5,297.5 C 198.25,299.674 197.25,301.341 195.5,302.5C 195.75,300.326 196.75,298.659 198.5,297.5 Z"/></g>
<g><path style="opacity:0.812" fill="#731917" d="M 152.5,312.5 C 156.706,329.53 161.04,346.53 165.5,363.5C 165.167,364.167 164.833,364.833 164.5,365.5C 159.753,348.115 155.753,330.448 152.5,312.5 Z"/></g>
<g><path style="opacity:1" fill="#f47c01" d="M 190.5,312.5 C 192.265,317.042 193.765,321.709 195,326.5C 195.775,340.186 192.442,352.853 185,364.5C 181.613,374.374 182.279,384.04 187,393.5C 191.551,402.601 195.551,411.935 199,421.5C 202.36,434.561 199.526,446.061 190.5,456C 179.82,426.838 171.153,396.671 164.5,365.5C 164.833,364.833 165.167,364.167 165.5,363.5C 173.053,346.062 181.386,329.062 190.5,312.5 Z"/></g>
<g><path style="opacity:1" fill="#ebdeb0" d="M 409.5,383.5 C 401.997,382.069 394.663,380.402 387.5,378.5C 374.727,375.243 361.727,372.41 348.5,370C 346.288,369.211 344.288,369.378 342.5,370.5C 341.833,370.5 341.5,370.167 341.5,369.5C 338.913,368.251 336.246,367.251 333.5,366.5C 334.861,364.473 336.527,362.806 338.5,361.5C 345.298,361.064 351.965,361.73 358.5,363.5C 360.932,360.838 363.265,358.005 365.5,355C 368.298,353.266 371.298,352.099 374.5,351.5C 385.346,352.676 390.346,358.676 389.5,369.5C 392.874,369.674 396.207,370.174 399.5,371C 405.343,372.18 409.343,375.513 411.5,381C 410.944,382.011 410.278,382.844 409.5,383.5 Z"/></g>
<g><path style="opacity:1" fill="#f9f7f5" d="M 379.5,370.5 C 372.67,372 369.67,369.333 370.5,362.5C 371.5,362.167 372.167,361.5 372.5,360.5C 380.671,359.48 383.005,362.813 379.5,370.5 Z"/></g>
<g><path style="opacity:1" fill="#f4ad5a" d="M 379.5,370.5 C 383.005,362.813 380.671,359.48 372.5,360.5C 371.262,360.19 371.262,359.69 372.5,359C 380.968,357.759 383.968,361.259 381.5,369.5C 381.043,370.298 380.376,370.631 379.5,370.5 Z"/></g>
<g><path style="opacity:1" fill="#f8f8f8" d="M 326.5,366.5 C 331.23,368.237 336.23,369.237 341.5,369.5C 341.5,370.167 341.833,370.5 342.5,370.5C 357.458,373.425 372.458,376.092 387.5,378.5C 394.663,380.402 401.997,382.069 409.5,383.5C 422.12,386.091 434.786,388.424 447.5,390.5C 447.5,391.833 447.5,393.167 447.5,394.5C 446.659,396.379 446.325,398.379 446.5,400.5C 442.625,415.207 439.625,430.207 437.5,445.5C 436.325,449.042 435.659,452.709 435.5,456.5C 433.215,463.913 431.549,471.58 430.5,479.5C 406.111,473.37 381.777,467.037 357.5,460.5C 337.638,453.904 317.971,446.737 298.5,439C 290.911,437.426 283.244,436.593 275.5,436.5C 275.5,435.167 275.5,433.833 275.5,432.5C 280.342,408.621 284.675,384.621 288.5,360.5C 289.117,360.389 289.617,360.056 290,359.5C 302.009,362.535 314.176,364.868 326.5,366.5 Z"/></g>
<g><path style="opacity:1" fill="#f48d3e" d="M 326.5,366.5 C 314.176,364.868 302.009,362.535 290,359.5C 289.617,360.056 289.117,360.389 288.5,360.5C 288.47,359.503 288.97,358.836 290,358.5C 302.335,360.998 314.501,363.665 326.5,366.5 Z"/></g>
<g><path style="opacity:1" fill="#f5a455" d="M 326.5,366.5 C 329.041,366.85 331.374,366.85 333.5,366.5C 336.246,367.251 338.913,368.251 341.5,369.5C 336.23,369.237 331.23,368.237 326.5,366.5 Z"/></g>
<g><path style="opacity:1" fill="#f5b76e" d="M 370.5,362.5 C 369.67,369.333 372.67,372 379.5,370.5C 373.964,373.573 370.297,371.906 368.5,365.5C 368.634,363.354 369.301,362.354 370.5,362.5 Z"/></g>
<g><path style="opacity:1" fill="#f5b060" d="M 342.5,370.5 C 344.288,369.378 346.288,369.211 348.5,370C 361.727,372.41 374.727,375.243 387.5,378.5C 372.458,376.092 357.458,373.425 342.5,370.5 Z"/></g>
<g><path style="opacity:1" fill="#f48b3b" d="M 446.5,400.5 C 444.118,415.744 441.118,430.744 437.5,445.5C 439.625,430.207 442.625,415.207 446.5,400.5 Z"/></g>
<g><path style="opacity:1" fill="#b25e47" d="M 275.5,432.5 C 275.5,433.833 275.5,435.167 275.5,436.5C 283.244,436.593 290.911,437.426 298.5,439C 317.971,446.737 337.638,453.904 357.5,460.5C 359.717,481.714 357.217,502.381 350,522.5C 349.632,523.91 348.799,524.91 347.5,525.5C 342.354,522.924 337.021,520.924 331.5,519.5C 316.811,519.654 302.145,519.154 287.5,518C 280.31,517.562 273.31,516.228 266.5,514C 264.714,513.215 263.214,512.049 262,510.5C 261.722,511.416 261.222,512.082 260.5,512.5C 260.674,504.644 260.341,496.811 259.5,489C 260.338,484.815 261.338,480.648 262.5,476.5C 260.758,473.393 259.425,470.059 258.5,466.5C 259.514,462.482 260.514,458.482 261.5,454.5C 258.532,443.077 262.866,437.077 274.5,436.5C 274.232,434.901 274.566,433.568 275.5,432.5 Z"/></g>
<g><path style="opacity:1" fill="#f67e00" d="M 435.5,456.5 C 434.296,464.521 432.962,472.521 431.5,480.5C 463.874,488.011 495.541,497.844 526.5,510C 539.305,515.146 550.472,522.646 560,532.5C 572.48,550.944 577.814,571.277 576,593.5C 572.5,609 563,618.5 547.5,622C 533.5,624.179 519.667,623.345 506,619.5C 505.235,619.57 504.735,619.903 504.5,620.5C 504.167,620.5 503.833,620.5 503.5,620.5C 503.38,619.414 502.713,618.747 501.5,618.5C 500.185,617.846 499.185,617.846 498.5,618.5C 469.312,609.329 440.645,598.995 412.5,587.5C 411.791,586.596 410.791,586.263 409.5,586.5C 383.779,575.977 358.445,564.31 333.5,551.5C 332.194,550.088 331.36,548.421 331,546.5C 330.448,537.487 330.615,528.487 331.5,519.5C 337.021,520.924 342.354,522.924 347.5,525.5C 348.799,524.91 349.632,523.91 350,522.5C 357.217,502.381 359.717,481.714 357.5,460.5C 381.777,467.037 406.111,473.37 430.5,479.5C 431.549,471.58 433.215,463.913 435.5,456.5 Z"/></g>
<g><path style="opacity:0.271" fill="#380e0c" d="M 245.5,477.5 C 244.833,476.5 244.167,475.5 243.5,474.5C 243.369,473.624 243.702,472.957 244.5,472.5C 245.452,474.045 245.785,475.712 245.5,477.5 Z"/></g>
<g><path style="opacity:0.043" fill="#451411" d="M 243.5,474.5 C 243.573,476.027 242.906,477.027 241.5,477.5C 241.427,475.973 242.094,474.973 243.5,474.5 Z"/></g>
<g><path style="opacity:0.004" fill="#3d120e" d="M 241.5,477.5 C 241.262,479.404 240.262,480.738 238.5,481.5C 238.738,479.596 239.738,478.262 241.5,477.5 Z"/></g>
<g><path style="opacity:0.035" fill="#441410" d="M 237.5,482.5 C 237.573,484.027 236.906,485.027 235.5,485.5C 235.427,483.973 236.094,482.973 237.5,482.5 Z"/></g>
<g><path style="opacity:0.02" fill="#411410" d="M 233.5,487.5 C 233.262,489.404 232.262,490.738 230.5,491.5C 230.738,489.596 231.738,488.262 233.5,487.5 Z"/></g>
<g><path style="opacity:0.071" fill="#451411" d="M 228.5,493.5 C 227.581,496.089 225.914,498.089 223.5,499.5C 224.419,496.911 226.086,494.911 228.5,493.5 Z"/></g>
<g><path style="opacity:0.004" fill="#3f120f" d="M 84.5,495.5 C 85.9238,497.515 86.5905,499.848 86.5,502.5C 85.0762,500.485 84.4095,498.152 84.5,495.5 Z"/></g>
<g><path style="opacity:0.6" fill="#1b2331" d="M 247.5,500.5 C 248.479,503.625 248.813,506.958 248.5,510.5C 247.549,509.081 247.216,507.415 247.5,505.5C 237.833,505.5 228.167,505.5 218.5,505.5C 218.5,505.167 218.5,504.833 218.5,504.5C 218.833,503.5 219.5,502.833 220.5,502.5C 229.318,503.493 238.318,503.827 247.5,503.5C 247.5,502.5 247.5,501.5 247.5,500.5 Z"/></g>
<g><path style="opacity:0.122" fill="#4b1613" d="M 218.5,504.5 C 218.5,504.833 218.5,505.167 218.5,505.5C 216.5,508.167 214.167,510.5 211.5,512.5C 213.094,509.236 215.427,506.569 218.5,504.5 Z"/></g>
<g><path style="opacity:1" fill="#f8f7f7" d="M 331.5,519.5 C 330.615,528.487 330.448,537.487 331,546.5C 331.36,548.421 332.194,550.088 333.5,551.5C 358.445,564.31 383.779,575.977 409.5,586.5C 407.858,592.045 406.858,597.711 406.5,603.5C 354.435,593.887 302.435,583.887 250.5,573.5C 252.647,558.803 254.981,544.136 257.5,529.5C 258.828,523.887 259.828,518.22 260.5,512.5C 261.222,512.082 261.722,511.416 262,510.5C 263.214,512.049 264.714,513.215 266.5,514C 273.31,516.228 280.31,517.562 287.5,518C 302.145,519.154 316.811,519.654 331.5,519.5 Z"/></g>
<g><path style="opacity:0.431" fill="#531412" d="M 89.5,510.5 C 90.9313,511.78 91.5979,513.447 91.5,515.5C 90.0687,514.22 89.4021,512.553 89.5,510.5 Z"/></g>
<g><path style="opacity:0.004" fill="#37110d" d="M 96.5,525.5 C 97.9063,525.973 98.573,526.973 98.5,528.5C 97.0937,528.027 96.427,527.027 96.5,525.5 Z"/></g>
<g><path style="opacity:0.02" fill="#3f130f" d="M 98.5,528.5 C 99.9063,528.973 100.573,529.973 100.5,531.5C 99.0937,531.027 98.427,530.027 98.5,528.5 Z"/></g>
<g><path style="opacity:0.098" fill="#411411" d="M 192.5,531.5 C 191.738,533.262 190.404,534.262 188.5,534.5C 189.262,532.738 190.596,531.738 192.5,531.5 Z"/></g>
<g><path style="opacity:0.043" fill="#451511" d="M 101.5,532.5 C 102.906,532.973 103.573,533.973 103.5,535.5C 102.094,535.027 101.427,534.027 101.5,532.5 Z"/></g>
<g><path style="opacity:0.031" fill="#3d110e" d="M 181.5,539.5 C 181.027,540.906 180.027,541.573 178.5,541.5C 178.973,540.094 179.973,539.427 181.5,539.5 Z"/></g>
<g><path style="opacity:0.302" fill="#4f1311" d="M 174.5,543.5 C 173.22,544.931 171.553,545.598 169.5,545.5C 170.78,544.069 172.447,543.402 174.5,543.5 Z"/></g>
<g><path style="opacity:0.427" fill="#621614" d="M 115.5,545.5 C 117.819,545.992 119.819,546.992 121.5,548.5C 118.911,548.539 116.911,547.539 115.5,545.5 Z"/></g>
<g><path style="opacity:0.702" fill="#a86228" d="M 257.5,529.5 C 254.981,544.136 252.647,558.803 250.5,573.5C 249.596,572.791 249.263,571.791 249.5,570.5C 251.284,558.465 253.284,546.465 255.5,534.5C 253.585,534.784 251.919,534.451 250.5,533.5C 252.5,533.5 254.5,533.5 256.5,533.5C 256.232,531.901 256.566,530.568 257.5,529.5 Z"/></g>
<g><path style="opacity:0.196" fill="#2b1700" d="M 249.5,570.5 C 249.263,571.791 249.596,572.791 250.5,573.5C 250.5,573.833 250.5,574.167 250.5,574.5C 249.414,574.38 248.747,573.713 248.5,572.5C 248.543,571.584 248.876,570.917 249.5,570.5 Z"/></g>
<g><path style="opacity:0.792" fill="#9d5f23" d="M 250.5,574.5 C 250.5,574.167 250.5,573.833 250.5,573.5C 302.435,583.887 354.435,593.887 406.5,603.5C 406.858,597.711 407.858,592.045 409.5,586.5C 410.791,586.263 411.791,586.596 412.5,587.5C 411.069,587.881 410.236,588.881 410,590.5C 408.842,595.457 408.008,600.457 407.5,605.5C 355.145,595.296 302.812,584.962 250.5,574.5 Z"/></g>
<g><path style="opacity:0.039" fill="#4d1813" d="M 617.5,612.5 C 616.833,615.167 615.167,616.833 612.5,617.5C 613.833,615.5 615.5,613.833 617.5,612.5 Z"/></g>
<g><path style="opacity:0.82" fill="#5b3513" d="M 503.5,620.5 C 501.597,620.204 499.93,619.537 498.5,618.5C 499.185,617.846 500.185,617.846 501.5,618.5C 502.713,618.747 503.38,619.414 503.5,620.5 Z"/></g>
</svg>
